<svg width="141" height="41" viewBox="0 0 141 41" fill="none" xmlns="http://www.w3.org/2000/svg">
<g clip-path="url(#clip0)">
<path fill-rule="evenodd" clip-rule="evenodd" d="M52.141 9.20055C51.6459 9.20055 51.3984 8.8296 51.3984 8.08771C51.3984 7.77378 51.3984 7.29685 51.4165 6.66295C51.4346 6.02905 51.4326 5.55413 51.4326 5.23819C51.4326 4.92225 51.4225 4.41916 51.4044 3.80337C51.3883 3.1413 51.3783 2.66639 51.3783 2.3766H50.9496C50.7014 2.3766 50.3311 2.36856 49.8387 2.35246C49.3436 2.33636 48.9733 2.32831 48.7257 2.32831H48.4259C48.4681 2.78713 48.4903 3.29827 48.4903 3.86978C48.4903 4.19176 48.4802 4.6754 48.4601 5.3207C48.44 5.966 48.4299 6.45031 48.4299 6.77363C48.4299 7.55241 48.289 8.12997 48.0053 8.50024C47.6672 8.95101 47.0815 9.1764 46.2564 9.1764C46.1589 9.1797 46.0617 9.16361 45.9705 9.12906C45.8793 9.09452 45.7959 9.0422 45.7251 8.97516C45.6552 8.90995 45.5998 8.8307 45.5627 8.74261C45.5256 8.65452 45.5076 8.55958 45.5097 8.46402C45.4971 8.35282 45.5156 8.2403 45.5632 8.13903C45.6109 8.03775 45.6857 7.9517 45.7794 7.89049C45.9813 7.82039 46.1907 7.7738 46.4033 7.75164C46.5382 7.73694 46.6632 7.67406 46.7555 7.57455C46.9025 7.33332 46.9668 7.0507 46.9386 6.76961C46.9386 6.44763 46.9487 5.96332 46.9688 5.31668C46.9889 4.6707 46.997 4.18572 46.997 3.86576C47.0032 3.22454 46.9642 2.58369 46.8802 1.94797C46.8198 1.84123 46.7886 1.72046 46.7897 1.59782C46.7873 1.50469 46.804 1.41206 46.8386 1.32557C46.8732 1.23907 46.925 1.16053 46.9909 1.09473C47.0608 1.02743 47.1435 0.974911 47.2341 0.940332C47.3247 0.905753 47.4213 0.889821 47.5182 0.893489C47.6524 0.893489 47.8536 0.901538 48.122 0.917637C48.3897 0.933736 48.5909 0.941784 48.7257 0.941784H52.1169C52.316 0.936271 52.5094 1.00844 52.6562 1.14302C52.7295 1.20627 52.788 1.28482 52.8277 1.37313C52.8673 1.46144 52.8871 1.55737 52.8856 1.65416C52.8856 2.35246 52.8997 3.41096 52.9279 4.81962C52.9561 6.22828 52.9702 7.28679 52.9702 7.98709C52.9702 8.79204 52.6924 9.19451 52.139 9.19451L52.141 9.20055ZM64.6449 9.40178C63.664 9.43109 62.7046 9.11084 61.938 8.49823C61.5563 8.19837 61.2498 7.81356 61.043 7.37442C60.8361 6.93528 60.7347 6.45394 60.7466 5.96868C60.7428 4.7629 61.1455 3.59102 61.8897 2.64224C62.7457 1.51531 63.8191 0.951847 65.1098 0.951847C66.3602 0.951847 67.2994 1.23827 67.9273 1.81113C68.5552 2.38398 68.8672 3.24393 68.8631 4.39098C68.8724 5.57566 68.5037 6.73245 67.8106 7.69328C67.0056 8.83497 65.9503 9.40581 64.6449 9.40581V9.40178ZM65.1198 2.39673C64.3229 2.39673 63.6393 2.78377 63.0691 3.55786C62.5451 4.24916 62.2623 5.09322 62.264 5.96063C62.2575 6.24004 62.317 6.51704 62.4376 6.76915C62.5583 7.02125 62.7367 7.24134 62.9584 7.41155C63.439 7.78044 64.0334 7.96979 64.6388 7.94684C65.4237 7.94684 66.0818 7.56047 66.6071 6.78772C67.0912 6.0802 67.3443 5.24012 67.3316 4.38294C67.3316 3.63232 67.1625 3.11112 66.8285 2.8153C66.4944 2.51948 65.9329 2.39673 65.1138 2.39673H65.1198ZM78.4186 4.8337C78.2576 5.41327 78.0322 6.28865 77.7424 7.45985C77.672 7.86232 77.6056 8.26479 77.5412 8.66727C77.3943 9.17439 77.1246 9.42996 76.7362 9.42996C76.626 9.43505 76.5161 9.41484 76.4149 9.37088C76.3138 9.32693 76.224 9.2604 76.1525 9.1764C76.0306 9.03516 75.9654 8.85378 75.9694 8.66727C75.9927 7.94705 76.1174 7.2337 76.3397 6.54824C76.7073 5.29789 76.9052 4.60497 76.9334 4.46947C77.038 3.91808 77.144 3.36669 77.2514 2.8153C77.4124 2.05731 77.5868 1.5522 77.7746 1.29999C77.8532 1.18332 77.9593 1.08778 78.0836 1.0218C78.2078 0.955827 78.3464 0.921436 78.4871 0.921662C78.6432 0.919942 78.7962 0.966337 78.9251 1.05454C79.054 1.14275 79.1526 1.26849 79.2075 1.41469C79.3504 1.7246 79.5034 2.36252 79.6684 3.32443C79.8435 4.34343 80.0781 5.35133 80.3708 6.34298C80.7733 5.28045 81.1523 4.11395 81.5079 2.84347L81.8077 1.60788C82.0009 1.09674 82.3001 0.841166 82.7053 0.841166C83.1105 0.841166 83.4003 1.13765 83.5747 1.73063C83.6928 2.17105 83.7776 2.61974 83.8283 3.07288C83.9899 4.39785 84.2475 5.70934 84.5991 6.997C84.9171 8.1038 85.0761 8.70751 85.0761 8.80813C85.0769 8.91012 85.0545 9.01096 85.0106 9.103C84.9666 9.19505 84.9023 9.27589 84.8225 9.3394C84.6758 9.46882 84.4869 9.54035 84.2912 9.54064C83.9035 9.54064 83.6143 9.26092 83.4238 8.70148L83.1239 7.4035C82.9509 6.75954 82.7644 5.83453 82.5645 4.62845C82.4035 5.10739 82.1351 5.86068 81.7594 6.88833L81.4394 7.87641C81.3304 8.20882 81.1916 8.53076 81.0249 8.83832C80.9534 8.98793 80.8409 9.11421 80.7006 9.20254C80.5602 9.29086 80.3978 9.33762 80.2319 9.33739C79.8938 9.33739 79.6382 9.13615 79.4571 8.73368L79.1572 7.72749C78.8795 6.81254 78.6293 5.84995 78.4066 4.83974L78.4186 4.8337ZM94.9093 9.15024C94.7403 9.15024 94.5068 9.15024 94.217 9.1281C93.8789 9.112 93.6495 9.10395 93.5247 9.09993C93.4474 9.12162 93.3675 9.13246 93.2872 9.13212C92.7613 9.13212 92.4983 8.76386 92.4983 8.02734C92.4983 7.93074 92.5245 7.62486 92.5728 7.11976C92.6388 6.49202 92.6731 5.86134 92.6754 5.23014C92.6754 4.88804 92.6573 4.37489 92.6231 3.69471C92.5889 3.01453 92.5687 2.50338 92.5687 2.15927C92.5472 1.86927 92.5834 1.57787 92.6754 1.302C92.8002 1.06253 93.0779 0.941784 93.5247 0.941784C93.793 0.941784 94.1955 0.935748 94.7322 0.923673C95.2689 0.911599 95.6761 0.90489 95.9538 0.903549H97.3062C97.404 0.900315 97.5015 0.916428 97.593 0.950962C97.6845 0.985497 97.7683 1.03777 97.8396 1.10479C97.9723 1.23859 98.0468 1.41942 98.0468 1.60788C98.0468 1.79634 97.9723 1.97717 97.8396 2.11097C97.6953 2.24574 97.5036 2.31807 97.3062 2.31221C96.9158 2.31221 95.8425 2.32495 94.0862 2.35044C94.105 2.79853 94.1318 3.28754 94.1667 3.81746C94.3539 3.81746 94.5068 3.80538 94.6296 3.80538C95.7673 3.80538 96.6045 3.9751 97.1412 4.31452C97.8174 4.73913 98.1475 5.47968 98.1475 6.54422C98.1475 7.44576 97.8188 8.11655 97.1613 8.55659C96.5978 8.93894 95.8425 9.13078 94.8952 9.13212L94.9093 9.15024ZM94.863 5.22813C94.69 5.22813 94.4605 5.22813 94.1929 5.25429C94.1929 5.33277 94.1929 5.41327 94.1929 5.4998C94.1929 5.88618 94.1519 6.62404 94.0701 7.71341C94.4062 7.71341 94.6739 7.72347 94.9013 7.72347C96.0726 7.72347 96.6575 7.3324 96.6562 6.55026C96.6562 6.00491 96.5073 5.64067 96.2054 5.45553C95.9612 5.29856 95.5117 5.22008 94.857 5.22008L94.863 5.22813ZM111.611 9.24079C111.33 9.23073 111.044 8.89668 110.758 8.23461C110.551 7.76401 110.388 7.2757 110.269 6.77564C110.005 6.81388 109.573 6.85413 108.969 6.89236C108.405 6.93261 107.973 6.97889 107.673 7.03121C107.508 7.42564 107.221 8.01794 106.813 8.80813C106.75 8.92632 106.656 9.02488 106.541 9.09302C106.425 9.16117 106.293 9.19628 106.159 9.19451C105.963 9.19574 105.774 9.124 105.628 8.99327C105.552 8.93175 105.491 8.85344 105.449 8.76444C105.408 8.67544 105.388 8.57815 105.391 8.48012C105.391 8.29901 105.652 7.68054 106.175 6.62471C106.127 6.52804 106.104 6.42071 106.109 6.3128C106.123 6.14175 106.298 6.00692 106.63 5.91032C107.139 5.03025 107.704 4.11797 108.327 3.1735C109.22 1.81716 109.771 1.139 109.979 1.139C110.374 1.139 110.637 1.37713 110.768 1.85339C110.841 2.23574 110.954 2.80993 111.108 3.57597C111.326 4.60631 111.594 5.78556 111.913 7.11372C111.992 7.35373 112.084 7.58949 112.187 7.82006C112.295 8.03755 112.363 8.27272 112.388 8.51433C112.39 8.61304 112.37 8.71094 112.33 8.80104C112.289 8.89114 112.23 8.97122 112.155 9.03553C112.084 9.1028 112.001 9.15527 111.91 9.18984C111.82 9.22441 111.723 9.24036 111.625 9.23677L111.611 9.24079ZM109.599 3.73495C109.318 4.2139 108.934 4.86657 108.446 5.69299C108.693 5.64637 108.944 5.61746 109.196 5.60646C109.599 5.58231 109.85 5.56218 109.953 5.5481C109.866 5.08324 109.752 4.47752 109.599 3.73696V3.73495ZM122.197 6.08339C122.137 6.08339 121.986 6.0693 121.746 6.04515C121.726 6.5469 121.716 7.36996 121.716 8.51433C121.717 8.60642 121.699 8.69768 121.664 8.78272C121.628 8.86775 121.576 8.94483 121.51 9.00938C121.445 9.07393 121.367 9.12465 121.281 9.15852C121.195 9.1924 121.104 9.20874 121.012 9.20658C120.918 9.2095 120.825 9.19314 120.737 9.15853C120.65 9.12392 120.571 9.07178 120.505 9.00535C120.44 8.94182 120.388 8.86568 120.354 8.7816C120.319 8.69752 120.302 8.60725 120.303 8.51634V7.01914C120.303 6.46372 120.339 5.64201 120.41 4.55399C120.479 3.44718 120.513 2.62413 120.517 2.07877C120.517 1.14906 120.778 0.704325 121.302 0.744573C121.467 0.703972 121.635 0.679043 121.805 0.670116C122.021 0.654017 122.282 0.645966 122.59 0.645966C123.305 0.65056 124 0.890257 124.566 1.32816C125.248 1.83528 125.589 2.45442 125.59 3.18558C125.603 3.61134 125.51 4.03361 125.32 4.41487C125.13 4.79613 124.849 5.12458 124.502 5.37101C123.832 5.85415 123.023 6.1044 122.197 6.08339ZM122.465 2.03048H122.163C122.088 2.03124 122.014 2.03595 121.94 2.04456C121.94 2.2136 121.94 2.46314 121.94 2.80121C121.94 3.20369 121.899 3.8074 121.839 4.65863C121.959 4.68006 122.081 4.69417 122.203 4.70089C122.698 4.71975 123.186 4.57861 123.594 4.29842C123.779 4.17666 123.93 4.00998 124.033 3.81396C124.136 3.61793 124.188 3.39897 124.184 3.17753C124.184 2.87366 123.998 2.60199 123.63 2.37258C123.286 2.14627 122.883 2.0272 122.471 2.03048H122.465ZM139.914 9.67748C139.915 9.75686 139.92 9.83613 139.93 9.91494C139.94 10.0216 139.946 10.1001 139.946 10.1544C139.948 10.25 139.93 10.3449 139.893 10.4329C139.855 10.521 139.8 10.6003 139.73 10.6656C139.585 10.8009 139.392 10.8733 139.193 10.8668C139.054 10.8783 138.914 10.8456 138.795 10.7733C138.675 10.7011 138.581 10.5929 138.527 10.4643C138.439 10.2111 138.401 9.94322 138.414 9.67547C138.414 9.54668 138.424 9.3716 138.446 9.15024C138.008 9.15024 137.195 9.15762 136.007 9.17237C134.82 9.18713 134.007 9.1925 133.57 9.18847C133.558 9.67546 133.552 9.97732 133.552 10.0961C133.556 10.1903 133.54 10.2843 133.506 10.372C133.471 10.4598 133.418 10.5392 133.351 10.6052C133.203 10.7359 133.013 10.8081 132.816 10.8081C132.619 10.8081 132.429 10.7359 132.282 10.6052C132.213 10.5399 132.158 10.4608 132.122 10.3732C132.085 10.2855 132.067 10.1911 132.069 10.0961C132.069 9.93707 132.069 9.69358 132.081 9.3877C132.093 9.08182 132.081 8.83631 132.081 8.67934C132.065 8.61698 132.052 8.55385 132.043 8.49018C132.043 8.12594 132.302 7.88647 132.815 7.79189C133.538 6.22427 133.902 4.51515 133.88 2.78914C133.873 2.59404 133.852 2.39969 133.818 2.20757C133.784 2.02137 133.763 1.83312 133.755 1.6441C133.755 1.17321 134.095 0.933734 134.776 0.925685L137.503 0.915625L138.334 0.883427C138.449 0.821723 138.579 0.790555 138.71 0.792871C138.908 0.786689 139.101 0.859024 139.245 0.994108C139.315 1.05893 139.371 1.13783 139.408 1.22559C139.445 1.31335 139.463 1.40798 139.461 1.50324C139.461 1.86546 139.466 2.40545 139.477 3.12319C139.489 3.83959 139.493 4.37891 139.493 4.73309C139.493 5.34082 139.473 6.36646 139.435 7.81L139.477 7.83214C139.63 7.8648 139.766 7.95191 139.86 8.07735C139.954 8.20278 140 8.35803 139.988 8.51433C139.988 8.64111 139.976 8.83631 139.95 9.09188C139.924 9.34745 139.914 9.54265 139.914 9.67345V9.67748ZM137.969 2.34239C137.768 2.34239 137.496 2.34239 137.164 2.34239L136.359 2.33233C136.132 2.33233 135.804 2.33233 135.377 2.34843V2.8153C135.368 3.63084 135.289 4.44411 135.142 5.24624C135.006 6.09389 134.777 6.92398 134.46 7.72146C134.712 7.72146 135.11 7.71072 135.653 7.68926C136.172 7.67182 136.571 7.66243 136.848 7.66108C137.09 7.66108 137.452 7.66108 137.929 7.68926C137.929 7.3713 137.941 6.88297 137.965 6.22425C137.988 5.60847 137.999 5.11275 137.998 4.73711C137.996 4.60027 137.987 3.80404 137.969 2.34843V2.34239Z" fill="#31307A" stroke="white" stroke-width="0.322975" stroke-miterlimit="22.93"/>
<path fill-rule="evenodd" clip-rule="evenodd" d="M63.1714 16.1774C62.3664 16.105 61.1588 11.7502 53.6481 12.1527C49.0434 12.4022 44.6259 14.4569 44.6199 18.8901L44.5957 33.1779C44.5957 36.281 47.0107 38.4926 49.3735 39.7161C51.0016 40.5593 57.816 41.7406 60.2009 38.883C60.8046 38.1585 58.138 40.3098 61.7787 40.2916L116.598 40.03C118.993 40.018 121.07 38.4624 122.463 36.116C122.589 35.9007 122.913 40.5975 130.895 40.7444C139.696 40.9034 140.871 35.7135 140.907 31.4875L141 20.663C141.024 17.6907 138.758 12.5069 131.654 12.3539C128.118 12.2775 126.121 13.0925 124.56 14.0162C123.825 14.4508 125.276 12.5149 122.314 12.531L63.8697 12.8852C63.0325 12.8852 63.3042 15.4771 63.1814 16.1774H63.1714ZM108.282 32.2764C107.838 32.2583 107.781 32.1617 107.765 31.6606L107.53 23.8768C107.465 21.7557 107.777 22.1662 108.075 23.597L109.755 31.6908C109.828 32.0389 109.89 32.2563 109.494 32.2683C109.287 32.2744 108.643 32.2885 108.282 32.2744V32.2764Z" fill="#31307A"/>
<path fill-rule="evenodd" clip-rule="evenodd" d="M11.161 7.43859C11.0282 7.66599 10.026 6.81274 9.06196 6.19293C8.4582 5.80052 7.57067 5.79046 6.71132 6.3338C4.79941 7.54122 2.41255 9.70452 0.637498 13.9164C-0.101101 15.6732 0.0337383 16.8987 0.0196506 17.6675C-0.0608507 24.1312 0.134365 31.8084 0.0981392 34.8631C0.0623775 35.1498 0.108426 35.4407 0.230967 35.7023C0.621398 36.634 7.41772 39.5842 8.84661 40.2744C10.2755 40.9646 10.4043 41.0311 11.793 39.7431C13.2561 38.3888 16.935 35.3743 16.9048 34.191C16.939 31.4522 16.7961 24.9784 16.8464 19.4283C16.8766 16.0556 15.8844 12.4514 14.522 11.0246C14.3569 10.9421 14.8279 9.63409 17.7903 9.51938C20.0041 9.43285 21.6705 10.4893 21.2559 10.928C19.8471 12.4192 18.9153 15.7899 18.9918 19.4444C19.1045 24.8677 19.0421 31.1785 19.0481 34.2051C19.0481 35.5292 24.1761 39.8941 24.6671 40.2422C26.0477 41.2222 25.5184 41.1619 26.7763 40.5823C27.3196 40.1174 33.643 36.7588 34.7942 35.8713C35.5388 35.2958 35.4825 35.1791 35.4784 34.2775C35.4603 30.1099 35.6515 21.0462 35.5267 18.0438C35.4945 17.3133 35.2309 15.2808 34.6976 13.846C33.8 11.4311 31.8016 8.40252 29.147 6.57528C28.1669 5.90114 27.3357 5.36786 26.1282 6.32776C25.5144 6.81275 24.9207 7.33395 24.8281 7.25547C24.1137 6.60748 23.1618 3.46014 20.0846 1.09158C18.3619 -0.232558 18.1908 -0.369399 16.3775 0.795762C13.252 2.80813 12.0606 5.9112 11.157 7.43658L11.161 7.43859ZM26.6374 32.3115V17.7077C26.6374 16.6049 28.5292 18.8044 28.5614 24.099C28.6057 31.5166 26.6273 33.0842 26.6293 32.3115H26.6374ZM8.97944 32.1827C8.97944 32.9534 7.00314 31.3777 7.04741 23.9682C7.0776 18.6736 8.96938 16.4741 8.96938 17.5769L8.97944 32.1827Z" fill="#2F336C"/>
<path fill-rule="evenodd" clip-rule="evenodd" d="M7.72035 38.3336C5.66958 37.4683 1.81357 35.7558 1.81357 34.7576C1.81357 30.2419 1.55798 22.5164 1.68276 17.1615C1.78137 12.9697 6.07612 7.73957 8.18122 7.66713C8.87957 7.64298 15.4585 10.9755 15.4465 17.3828L15.4183 33.0954C15.4183 34.4075 15.7242 34.3974 14.8347 35.2587L11.7313 38.2652C10.8519 39.1164 10.3789 38.9937 10.4836 37.3315C10.7291 33.4496 10.5721 20.1519 10.4976 16.1473C10.3588 8.73972 15.9516 1.14906 18.0225 1.25572C19.8076 1.19535 25.0342 7.33911 25.3602 15.8192C25.5614 20.8502 25.1288 33.9507 25.2535 37.5206C25.3099 39.1305 24.7383 38.887 24.0843 38.229L21.1138 35.2426C20.2202 34.3431 20.5201 34.5021 20.5201 33.2001V17.3426C20.5201 13.7666 25.3723 7.52224 27.0467 7.51821C29.1599 7.51821 33.3298 11.9193 33.6881 16.6664C33.9799 20.6026 34.0161 30.914 33.837 34.7274C33.5532 35.4117 30.3493 37.096 28.2542 38.1344C25.8814 39.3076 26.298 39.4223 27.1413 36.9531C28.5843 32.7272 30.79 26.0521 30.0735 21.643C28.699 13.179 21.8483 8.16016 17.628 8.16016C12.9268 8.17827 7.00188 14.0785 5.66757 20.7455C4.67539 25.704 5.6877 32.0329 8.68637 37.2067C9.87376 39.2533 9.93414 39.2734 7.72035 38.3336Z" fill="#2F336C" stroke="white" stroke-width="0.943088" stroke-miterlimit="22.93"/>
<path fill-rule="evenodd" clip-rule="evenodd" d="M62.2171 36.2689C61.9394 37.9492 62.9114 37.8265 63.3099 37.8567C63.5273 37.8728 67.7737 37.8707 68.4519 37.8868C69.1684 37.905 69.6031 37.9754 69.6333 36.611C69.6514 35.6934 69.6957 34.5322 69.6816 33.7937C69.6816 33.4113 71.2252 33.3308 71.3238 33.7373C71.4808 34.3793 71.4506 35.5022 71.5251 36.5547C71.5794 37.3596 71.6619 37.9532 72.8171 37.9351C73.3364 37.9351 75.8661 37.9351 77.3655 37.9351C78.573 37.9351 78.6374 37.752 78.3516 36.0113L75.2 16.7912C74.9826 15.465 74.5419 14.6923 74.3265 14.6842C72.1872 14.5937 67.5463 14.6581 66.6205 14.5876C65.8336 14.5273 65.6807 15.302 65.4653 16.6L62.2171 36.2689ZM70.3498 23.2388L71.1991 27.5413C71.6398 29.775 71.3419 29.6059 70.4242 29.6019C69.4643 29.6019 69.0456 29.7689 69.4763 27.6117L70.3498 23.2388Z" fill="#1D906D" stroke="white" stroke-width="1.10027" stroke-miterlimit="22.93"/>
<path fill-rule="evenodd" clip-rule="evenodd" d="M80.3731 14.7607C81.2526 14.803 83.4422 14.7768 84.1768 14.7849C86.143 14.805 85.7868 15.1008 85.7989 16.437L85.815 22.5647C85.815 23.0919 87.4813 23.0678 87.4874 22.5647L87.5478 16.4048C87.6303 15.1471 87.3807 14.8291 88.3709 14.811C88.4675 14.811 91.6372 14.811 92.6334 14.811C93.1345 14.811 93.7282 14.644 93.7423 16.0969L93.9255 35.1158C93.9436 36.927 94.0704 37.9533 92.718 37.9915C91.8425 38.0136 90.2606 38.0619 89.029 38.0177C87.2761 37.9533 87.4451 37.1141 87.4391 36.7358C87.4149 35.299 87.4854 30.7269 87.4874 28.7225C87.4874 28.1188 85.8009 27.988 85.7828 28.6501C85.7324 30.3928 85.7566 34.6188 85.7626 36.6311C85.7626 37.5307 85.6922 38.0398 83.9151 37.9815C82.9813 37.9533 81.9912 37.9935 80.7373 37.9955C79.7915 37.9955 79.1736 37.9794 79.1374 36.8988C78.9744 32.1436 79.3205 16.918 79.3225 16.2418C79.3326 15.2276 79.0307 14.6943 80.3731 14.7607Z" fill="#1D906D" stroke="white" stroke-width="1.10027" stroke-miterlimit="22.93"/>
<path fill-rule="evenodd" clip-rule="evenodd" d="M95.3432 14.6863C94.6489 14.6863 94.6912 14.7044 94.6912 15.3061V19.2986C94.6912 19.4475 94.5785 19.7132 95.0594 19.7192L98.0903 19.7554C98.4445 19.7554 98.4626 19.848 98.4606 19.9567L98.686 37.746C98.686 38.0076 105.269 37.9472 105.269 37.746L105.231 19.9929C105.263 19.8118 105.086 19.6971 105.647 19.6931C106.05 19.6931 107.237 19.7112 108.207 19.6931C108.539 19.6931 108.811 19.7051 108.811 19.3791V15.0123C108.811 14.6279 108.704 14.7225 108.409 14.7225C106.625 14.7225 95.4116 14.6863 95.3432 14.6863Z" fill="#1D906D" stroke="white" stroke-width="1.10027" stroke-miterlimit="22.93"/>
<path fill-rule="evenodd" clip-rule="evenodd" d="M55.6899 25.2774C56.2776 25.2774 59.6445 25.2915 60.7937 25.2613C62.124 25.2251 62.0314 24.7964 62.0596 23.744C62.1562 20.1861 61.8925 14.149 54.6675 14.2858C50.2983 14.3663 46.8328 15.9621 46.7583 19.8621L46.5168 32.208C46.4403 36.2327 50.1635 38.563 54.2872 38.563C59.7774 38.563 62.1783 35.0293 62.0012 29.6382C61.965 28.5435 62.3172 28.1712 60.8279 28.1792C60.5059 28.1792 59.075 28.1792 56.2776 28.1792C55.1727 28.1792 54.8346 28.1792 54.8527 29.3866C54.8668 30.3928 54.7963 31.9564 54.7762 33.0512C54.7601 33.9366 53.46 33.836 53.464 33.0371C53.4741 30.8979 53.621 21.6994 53.5687 19.7896C53.5365 18.5822 54.8346 18.7935 54.8326 19.6991C54.8326 22.6754 54.8326 23.102 54.8326 23.9532C54.8245 24.9816 54.8789 25.2794 55.6899 25.2774Z" fill="#1D906D" stroke="white" stroke-width="1.10027" stroke-miterlimit="22.93"/>
<path fill-rule="evenodd" clip-rule="evenodd" d="M109.618 14.6541L112.975 14.6682C114.197 14.6682 114.384 14.6058 114.646 16.3123L116.171 25.9616L116.715 16.3445C116.793 14.9559 117.196 14.6561 118.292 14.6541H121.551C122.662 14.6541 122.833 15.3363 122.732 16.2338L120.854 33.0069C120.55 35.7316 119.361 37.8366 116.608 37.8245L109.956 37.7802C109.755 37.7802 109.578 34.2505 109.946 34.2505C110.373 34.2505 111.673 34.4035 112.045 34.0493C112.351 33.7555 111.987 33.0773 111.804 32.051L108.996 16.3364C108.848 15.5415 108.882 14.6521 109.618 14.6541Z" fill="#1D906D" stroke="white" stroke-width="1.10027" stroke-miterlimit="22.93"/>
<path fill-rule="evenodd" clip-rule="evenodd" d="M132.497 25.221C133.084 25.221 136.449 25.2371 137.6 25.2049C138.931 25.1687 138.836 24.7421 138.866 23.6876C138.963 20.1297 138.699 14.0926 131.472 14.2295C127.103 14.312 123.639 15.9058 123.563 19.8057L123.323 32.1516C123.245 36.1764 126.97 38.5067 131.092 38.5067C136.582 38.5067 138.983 34.975 138.808 29.5818C138.772 28.4891 139.122 28.1148 137.635 28.1228C137.313 28.1228 135.88 28.1228 133.082 28.1228C131.977 28.1228 131.639 28.1228 131.657 29.3303C131.671 30.3365 131.601 31.8981 131.583 32.9928C131.567 33.8802 130.267 33.7796 130.269 32.9787C130.281 30.8395 130.426 21.641 130.375 19.7313C130.343 18.5239 131.641 18.7351 131.639 19.6407C131.639 22.617 131.639 23.0436 131.639 23.8969C131.627 24.9252 131.68 25.223 132.497 25.221Z" fill="#1D906D" stroke="white" stroke-width="1.10027" stroke-miterlimit="22.93"/>
</g>
<defs>
<clipPath id="clip0">
<rect width="141" height="41" fill="white"/>
</clipPath>
</defs>
</svg>
